# xmcd
#
# Track frame offsets:
#	150
#	17817
#	33785
#	47217
#	65212
#	81646
#	101071
#	119238
#	138182
#	154473
#	172279
#	191573
#
# Disc length: 2720 seconds
#
# Revision: 0
# Processed by: cddbd v1.5.2PL0 Copyright (c) Steve Scherf et al.
# Submitted via: dBpowerAMP V4.0
#
DISCID=b90a9e0c
DTITLE=Luis Miguel - Lo mejor en Sax
DYEAR=1900
DGENRE=
TTITLE0=fria como el viento
TTITLE1=todo o nada
TTITLE2=por debajo de la mesa
TTITLE3=hasta que me olvides
TTITLE4=historia de un amor
TTITLE5=entregate
TTITLE6=sueña
TTITLE7=dormir contigo
TTITLE8=el dia que me quieras
TTITLE9=la incondicional
TTITLE10=inolvidable
TTITLE11=la media vuelta
EXTD=
EXTT0=
EXTT1=
EXTT2=
EXTT3=
EXTT4=
EXTT5=
EXTT6=
EXTT7=
EXTT8=
EXTT9=
EXTT10=
EXTT11=
PLAYORDER=
